<svg width="14" height="16" viewBox="0 0 14 16" fill="none" xmlns="http://www.w3.org/2000/svg">
<path d="M13.7303 11.3216C13.1265 10.6728 11.9969 9.69687 11.9969 6.5C11.9969 4.07188 10.2943 2.12812 7.99872 1.65125V1C7.99872 0.447812 7.55123 0 6.99935 0C6.44747 0 5.99998 0.447812 5.99998 1V1.65125C3.70435 2.12812 2.00185 4.07188 2.00185 6.5C2.00185 9.69687 0.872163 10.6728 0.268413 11.3216C0.0809127 11.5231 -0.00221228 11.7641 -0.000649781 12C0.00278772 12.5125 0.404975 13 1.00248 13H12.9962C13.5937 13 13.9962 12.5125 13.9994 12C14.0009 11.7641 13.9178 11.5228 13.7303 11.3216ZM2.10966 11.5C2.77279 10.6259 3.49779 9.17719 3.50123 6.51813C3.50123 6.51188 3.49935 6.50625 3.49935 6.5C3.49935 4.56687 5.06623 3 6.99935 3C8.93248 3 10.4994 4.56687 10.4994 6.5C10.4994 6.50625 10.4975 6.51188 10.4975 6.51813C10.5009 9.1775 11.2259 10.6263 11.889 11.5H2.10966ZM6.99935 16C8.1031 16 8.99841 15.1047 8.99841 14H5.00029C5.00029 15.1047 5.8956 16 6.99935 16Z" fill="#214252"/>
</svg>
