<svg width="179" height="27" viewBox="0 0 179 27" fill="none" xmlns="http://www.w3.org/2000/svg">
<path d="M43.4367 17.36H43.9567C44.0234 17.7333 44.0834 18.2067 44.1367 18.78C44.19 19.34 44.2034 19.8867 44.1767 20.42C43.9767 20.58 43.7367 20.7133 43.4567 20.82C43.1767 20.9133 42.8767 20.9933 42.5567 21.06C42.25 21.1267 41.93 21.1733 41.5967 21.2C41.2767 21.2267 40.97 21.24 40.6767 21.24C39.5567 21.24 38.5567 21.1 37.6767 20.82C36.7967 20.5267 36.05 20.0867 35.4367 19.5C34.8367 18.9133 34.37 18.1667 34.0367 17.26C33.7167 16.34 33.5567 15.2533 33.5567 14C33.5567 12.6933 33.7367 11.5867 34.0967 10.68C34.4567 9.76 34.9434 9.01333 35.5567 8.44C36.17 7.85333 36.8834 7.42667 37.6967 7.16C38.51 6.89333 39.3634 6.76 40.2567 6.76C41.1367 6.76 41.8767 6.82 42.4767 6.94C43.0767 7.04667 43.6034 7.21333 44.0567 7.44C44.0567 7.65333 44.05 7.90667 44.0367 8.2C44.0234 8.48 44.0034 8.78 43.9767 9.1C43.95 9.42 43.9167 9.73333 43.8767 10.04C43.8367 10.3467 43.7967 10.6267 43.7567 10.88H43.2367L42.1967 8C42.05 7.92 41.8034 7.86667 41.4567 7.84C41.1234 7.81333 40.79 7.8 40.4567 7.8C39.79 7.8 39.1567 7.92667 38.5567 8.18C37.97 8.42 37.45 8.8 36.9967 9.32C36.5567 9.82667 36.2034 10.4733 35.9367 11.26C35.67 12.0333 35.5367 12.9467 35.5367 14C35.5367 14.9467 35.6567 15.8067 35.8967 16.58C36.1367 17.34 36.4834 17.9933 36.9367 18.54C37.39 19.0733 37.9434 19.4867 38.5967 19.78C39.25 20.06 39.99 20.2 40.8167 20.2C41.2567 20.2 41.6234 20.1667 41.9167 20.1C42.21 20.0333 42.4034 19.9467 42.4967 19.84L43.4367 17.36ZM46.8995 16C46.8995 15.16 47.0062 14.42 47.2195 13.78C47.4462 13.1267 47.7662 12.58 48.1795 12.14C48.5928 11.6867 49.0862 11.3467 49.6595 11.12C50.2462 10.88 50.8928 10.76 51.5995 10.76C52.4262 10.76 53.1395 10.8867 53.7395 11.14C54.3395 11.3933 54.8262 11.7533 55.1995 12.22C55.5862 12.6733 55.8662 13.22 56.0395 13.86C56.2262 14.5 56.3195 15.2133 56.3195 16C56.3195 17.68 55.8929 18.9733 55.0395 19.88C54.1862 20.7867 53.0395 21.24 51.5995 21.24C50.7995 21.24 50.1062 21.12 49.5195 20.88C48.9328 20.6267 48.4462 20.2733 48.0595 19.82C47.6728 19.3533 47.3795 18.8 47.1795 18.16C46.9928 17.5067 46.8995 16.7867 46.8995 16ZM48.8195 16C48.8195 16.6 48.8728 17.1667 48.9795 17.7C49.0995 18.2333 49.2795 18.7 49.5195 19.1C49.7728 19.4867 50.0995 19.7933 50.4995 20.02C50.8995 20.2467 51.3795 20.36 51.9395 20.36C52.6595 20.36 53.2462 20.0067 53.6995 19.3C54.1662 18.5933 54.3995 17.4933 54.3995 16C54.3995 15.3867 54.3395 14.82 54.2195 14.3C54.1129 13.7667 53.9395 13.3067 53.6995 12.92C53.4595 12.52 53.1528 12.2067 52.7795 11.98C52.4062 11.7533 51.9595 11.64 51.4395 11.64C50.6528 11.64 50.0195 11.9933 49.5395 12.7C49.0595 13.4067 48.8195 14.5067 48.8195 16ZM69.2942 21H65.0142V20.5C65.1475 20.42 65.3075 20.34 65.4942 20.26C65.6942 20.1667 65.9275 20.0867 66.1942 20.02V15.4C66.1942 14.8667 66.1675 14.3867 66.1142 13.96C66.0742 13.5333 65.9875 13.18 65.8542 12.9C65.7342 12.6067 65.5542 12.3867 65.3142 12.24C65.0742 12.08 64.7609 12 64.3742 12C64.0809 12 63.8075 12.06 63.5542 12.18C63.3142 12.3 63.0942 12.46 62.8942 12.66C62.7075 12.86 62.5409 13.0867 62.3942 13.34C62.2609 13.5933 62.1542 13.86 62.0742 14.14V20.02C62.2875 20.0867 62.4875 20.16 62.6742 20.24C62.8742 20.3067 63.0675 20.3933 63.2542 20.5V21H58.9542V20.5C59.1409 20.4067 59.3475 20.32 59.5742 20.24C59.8009 20.16 60.0342 20.0867 60.2742 20.02V12.16L58.9542 12V11.48C59.3809 11.2933 59.8142 11.1467 60.2542 11.04C60.7075 10.92 61.1475 10.8267 61.5742 10.76H62.0742V13.02H62.0942C62.3075 12.3933 62.6675 11.86 63.1742 11.42C63.6942 10.98 64.3342 10.76 65.0942 10.76C65.4142 10.76 65.7209 10.7933 66.0142 10.86C66.3075 10.9267 66.5809 11.0533 66.8342 11.24C67.0875 11.4133 67.3009 11.66 67.4742 11.98C67.6475 12.3 67.7742 12.7133 67.8542 13.22C68.0942 12.4867 68.4809 11.8933 69.0142 11.44C69.5475 10.9867 70.2142 10.76 71.0142 10.76C71.5075 10.76 71.9342 10.8267 72.2942 10.96C72.6675 11.08 72.9742 11.3 73.2142 11.62C73.4542 11.94 73.6275 12.3733 73.7342 12.92C73.8542 13.4667 73.9142 14.16 73.9142 15V20.02C74.3675 20.1 74.8075 20.26 75.2342 20.5V21H70.9342V20.5C71.3342 20.2867 71.7275 20.1267 72.1142 20.02V15.04C72.1142 14.56 72.0875 14.1333 72.0342 13.76C71.9942 13.3867 71.9075 13.0733 71.7742 12.82C71.6409 12.5533 71.4542 12.3533 71.2142 12.22C70.9742 12.0733 70.6542 12 70.2542 12C69.6142 12 69.1142 12.22 68.7542 12.66C68.4075 13.1 68.1542 13.66 67.9942 14.34V20.02C68.4609 20.1533 68.8942 20.3133 69.2942 20.5V21ZM81.8598 25H77.4198V24.5C77.8732 24.2867 78.3132 24.1267 78.7398 24.02V12.16L77.4198 12V11.48C77.8465 11.2933 78.2798 11.1467 78.7198 11.04C79.1732 10.92 79.6132 10.8267 80.0398 10.76H80.5398V13H80.5598C80.8265 12.32 81.1998 11.78 81.6798 11.38C82.1598 10.9667 82.7865 10.76 83.5598 10.76C84.7465 10.76 85.6665 11.1533 86.3198 11.94C86.9732 12.7267 87.2998 14.0067 87.2998 15.78C87.2998 16.62 87.1865 17.38 86.9598 18.06C86.7465 18.74 86.4332 19.3133 86.0198 19.78C85.6198 20.2467 85.1265 20.6067 84.5398 20.86C83.9665 21.1133 83.3265 21.24 82.6198 21.24C82.1265 21.24 81.7398 21.2067 81.4598 21.14C81.1798 21.0867 80.8732 20.9867 80.5398 20.84V24.02C80.7532 24.0467 80.9665 24.0933 81.1798 24.16C81.3932 24.24 81.6198 24.3533 81.8598 24.5V25ZM82.9198 12C82.2665 12 81.7465 12.2067 81.3598 12.62C80.9732 13.0333 80.6998 13.6 80.5398 14.32V19.92C80.7798 20.0667 81.0465 20.18 81.3398 20.26C81.6465 20.3267 82.0398 20.36 82.5198 20.36C82.9598 20.36 83.3532 20.2467 83.6998 20.02C84.0598 19.7933 84.3598 19.4733 84.5998 19.06C84.8532 18.6467 85.0465 18.1667 85.1798 17.62C85.3132 17.06 85.3798 16.4467 85.3798 15.78C85.3798 15.2333 85.3332 14.7333 85.2398 14.28C85.1598 13.8133 85.0198 13.4133 84.8198 13.08C84.6332 12.7333 84.3798 12.4667 84.0598 12.28C83.7532 12.0933 83.3732 12 82.9198 12ZM97.528 18.38C97.528 18.6733 97.5346 18.9267 97.548 19.14C97.5613 19.3533 97.5746 19.58 97.588 19.82L98.968 20.02V20.44C98.6346 20.6133 98.2613 20.7667 97.848 20.9C97.448 21.0333 97.0613 21.1333 96.688 21.2H96.188C96.0546 20.8933 95.9746 20.56 95.948 20.2C95.9213 19.8267 95.9013 19.42 95.888 18.98H95.788C95.7346 19.2467 95.628 19.52 95.468 19.8C95.3213 20.0667 95.1213 20.3067 94.868 20.52C94.628 20.7333 94.3413 20.9067 94.008 21.04C93.6746 21.1733 93.2946 21.24 92.868 21.24C92.0546 21.24 91.388 20.9933 90.868 20.5C90.3613 20.0067 90.108 19.36 90.108 18.56C90.108 17.9467 90.228 17.4467 90.468 17.06C90.7213 16.66 91.088 16.3467 91.568 16.12C92.048 15.8933 92.6413 15.7333 93.348 15.64C94.0546 15.5333 94.8746 15.4533 95.808 15.4C95.8613 14.8267 95.8746 14.3133 95.848 13.86C95.8346 13.3933 95.7613 13 95.628 12.68C95.508 12.3467 95.3213 12.0933 95.068 11.92C94.828 11.7333 94.508 11.64 94.108 11.64C93.9213 11.64 93.708 11.6533 93.468 11.68C93.2413 11.6933 93.0146 11.7467 92.788 11.84L91.848 14.24H91.328C91.1946 13.84 91.0746 13.4267 90.968 13C90.8746 12.5733 90.8146 12.1533 90.788 11.74C91.2946 11.4333 91.8546 11.1933 92.468 11.02C93.0946 10.8467 93.788 10.76 94.548 10.76C95.228 10.76 95.768 10.86 96.168 11.06C96.5813 11.2467 96.8946 11.4933 97.108 11.8C97.3213 12.1067 97.4613 12.4467 97.528 12.82C97.5946 13.1933 97.628 13.5667 97.628 13.94C97.628 14.74 97.608 15.5133 97.568 16.26C97.5413 16.9933 97.528 17.7 97.528 18.38ZM93.668 20C94.0013 20 94.2946 19.9333 94.548 19.8C94.8013 19.6667 95.0146 19.5067 95.188 19.32C95.3613 19.1333 95.5013 18.9467 95.608 18.76C95.7146 18.56 95.788 18.3933 95.828 18.26V16.16C95.0546 16.16 94.4213 16.2 93.928 16.28C93.4346 16.36 93.048 16.4867 92.768 16.66C92.488 16.8333 92.2946 17.0533 92.188 17.32C92.0813 17.5733 92.028 17.8667 92.028 18.2C92.028 18.7733 92.1746 19.22 92.468 19.54C92.7613 19.8467 93.1613 20 93.668 20ZM112.166 21H107.866V20.5C108.226 20.3133 108.619 20.1533 109.046 20.02V15.28C109.046 14.2667 108.899 13.4667 108.606 12.88C108.312 12.2933 107.779 12 107.006 12C106.672 12 106.359 12.06 106.066 12.18C105.786 12.3 105.532 12.4667 105.306 12.68C105.092 12.88 104.906 13.1133 104.746 13.38C104.586 13.6333 104.459 13.9 104.366 14.18V20.02C104.779 20.1 105.179 20.26 105.566 20.5V21H101.246V20.5C101.579 20.3267 102.019 20.1667 102.566 20.02V12.16L101.246 12V11.48C101.592 11.3333 101.992 11.2 102.446 11.08C102.899 10.96 103.372 10.8533 103.866 10.76H104.366V13H104.386C104.666 12.3867 105.066 11.86 105.586 11.42C106.119 10.98 106.759 10.76 107.506 10.76C108.039 10.76 108.512 10.8267 108.926 10.96C109.352 11.08 109.706 11.3 109.986 11.62C110.266 11.94 110.479 12.3733 110.626 12.92C110.772 13.4533 110.846 14.1333 110.846 14.96V20.02C111.379 20.1133 111.819 20.2733 112.166 20.5V21ZM114.541 12C114.341 11.9467 114.154 11.88 113.981 11.8C113.821 11.72 113.654 11.6267 113.481 11.52V11H117.661V11.5C117.381 11.6867 117.001 11.8533 116.521 12L119.081 17.92L119.461 19.16H119.501L119.801 17.9L121.701 12C121.301 11.92 120.934 11.76 120.601 11.52V11H124.021V11.52C123.741 11.7067 123.361 11.8667 122.881 12L119.761 21C119.441 21.8533 119.134 22.54 118.841 23.06C118.561 23.5933 118.274 24.0133 117.981 24.32C117.701 24.6267 117.407 24.8467 117.101 24.98C116.807 25.1267 116.487 25.2333 116.141 25.3C115.994 25.0467 115.861 24.7667 115.741 24.46C115.634 24.1533 115.541 23.86 115.461 23.58L115.721 23.1H117.801C117.881 22.9933 117.947 22.8867 118.001 22.78C118.067 22.6867 118.134 22.5667 118.201 22.42C118.267 22.2733 118.341 22.0867 118.421 21.86C118.501 21.6333 118.594 21.3467 118.701 21L114.541 12ZM131.642 7H137.122V7.58C136.802 7.7 136.482 7.80667 136.162 7.9C135.842 7.98 135.522 8.04 135.202 8.08V19.96H139.802L140.982 16.74H141.502C141.542 17.02 141.575 17.3467 141.602 17.72C141.642 18.08 141.668 18.46 141.682 18.86C141.708 19.2467 141.722 19.6267 141.722 20C141.722 20.3733 141.715 20.7067 141.702 21H131.642V20.42C131.962 20.2733 132.255 20.1667 132.522 20.1C132.788 20.0333 133.042 19.98 133.282 19.94V8.08C132.975 8.02667 132.682 7.96 132.402 7.88C132.122 7.78667 131.868 7.68667 131.642 7.58V7ZM144.058 16C144.058 15.16 144.165 14.42 144.378 13.78C144.605 13.1267 144.925 12.58 145.338 12.14C145.751 11.6867 146.245 11.3467 146.818 11.12C147.405 10.88 148.051 10.76 148.758 10.76C149.585 10.76 150.298 10.8867 150.898 11.14C151.498 11.3933 151.985 11.7533 152.358 12.22C152.745 12.6733 153.025 13.22 153.198 13.86C153.385 14.5 153.478 15.2133 153.478 16C153.478 17.68 153.051 18.9733 152.198 19.88C151.345 20.7867 150.198 21.24 148.758 21.24C147.958 21.24 147.265 21.12 146.678 20.88C146.091 20.6267 145.605 20.2733 145.218 19.82C144.831 19.3533 144.538 18.8 144.338 18.16C144.151 17.5067 144.058 16.7867 144.058 16ZM145.978 16C145.978 16.6 146.031 17.1667 146.138 17.7C146.258 18.2333 146.438 18.7 146.678 19.1C146.931 19.4867 147.258 19.7933 147.658 20.02C148.058 20.2467 148.538 20.36 149.098 20.36C149.818 20.36 150.405 20.0067 150.858 19.3C151.325 18.5933 151.558 17.4933 151.558 16C151.558 15.3867 151.498 14.82 151.378 14.3C151.271 13.7667 151.098 13.3067 150.858 12.92C150.618 12.52 150.311 12.2067 149.938 11.98C149.565 11.7533 149.118 11.64 148.598 11.64C147.811 11.64 147.178 11.9933 146.698 12.7C146.218 13.4067 145.978 14.5067 145.978 16ZM160.433 10.76C161.153 10.76 161.759 10.8333 162.253 10.98C162.746 11.1133 163.159 11.3267 163.493 11.62C164.279 11.0867 165.099 10.7 165.953 10.46C166.059 10.6067 166.133 10.7867 166.173 11C166.226 11.2133 166.253 11.4133 166.253 11.6L165.993 12.08H163.893C164.226 12.56 164.393 13.1933 164.393 13.98C164.393 14.94 164.053 15.72 163.373 16.32C162.706 16.92 161.726 17.22 160.433 17.22C160.179 17.22 159.973 17.2133 159.813 17.2C159.653 17.1867 159.473 17.1667 159.273 17.14C159.206 17.26 159.126 17.3933 159.033 17.54C158.953 17.6867 158.913 17.84 158.913 18C158.913 18.2667 159.066 18.48 159.373 18.64C159.679 18.7867 160.059 18.92 160.513 19.04C160.979 19.16 161.479 19.2867 162.013 19.42C162.559 19.54 163.066 19.7133 163.533 19.94C163.999 20.1533 164.386 20.44 164.693 20.8C165.013 21.1467 165.179 21.6 165.193 22.16C165.206 22.64 165.093 23.0733 164.853 23.46C164.626 23.8467 164.306 24.1667 163.893 24.42C163.479 24.6867 162.979 24.8867 162.393 25.02C161.819 25.1667 161.186 25.24 160.493 25.24C159.039 25.24 157.939 24.9933 157.193 24.5C156.459 24.0067 156.093 23.3867 156.093 22.64C156.093 22.28 156.146 21.9667 156.253 21.7C156.373 21.4333 156.539 21.2 156.753 21C156.966 20.8 157.233 20.6267 157.553 20.48C157.873 20.32 158.239 20.1733 158.653 20.04C158.359 19.9067 158.113 19.7267 157.913 19.5C157.726 19.26 157.633 18.9733 157.633 18.64C157.633 18.3333 157.759 18.0333 158.013 17.74C158.279 17.4333 158.546 17.1933 158.813 17.02C158.053 16.82 157.466 16.44 157.053 15.88C156.653 15.32 156.453 14.6867 156.453 13.98C156.453 13.5267 156.539 13.1067 156.713 12.72C156.886 12.32 157.139 11.9733 157.473 11.68C157.806 11.3867 158.219 11.16 158.713 11C159.206 10.84 159.779 10.76 160.433 10.76ZM163.393 22.62C163.393 22.1933 163.246 21.8533 162.953 21.6C162.673 21.3467 162.319 21.14 161.893 20.98C161.466 20.82 161.006 20.6867 160.513 20.58C160.019 20.4733 159.559 20.3533 159.133 20.22C158.626 20.5267 158.293 20.8467 158.133 21.18C157.973 21.5267 157.893 21.88 157.893 22.24C157.893 22.9467 158.146 23.4733 158.653 23.82C159.159 24.18 159.893 24.36 160.853 24.36C161.346 24.36 161.753 24.3133 162.073 24.22C162.406 24.1267 162.666 24 162.853 23.84C163.053 23.6933 163.193 23.5133 163.273 23.3C163.353 23.0867 163.393 22.86 163.393 22.62ZM158.253 13.98C158.253 14.3 158.286 14.6067 158.353 14.9C158.433 15.18 158.553 15.4267 158.713 15.64C158.886 15.8533 159.113 16.0267 159.393 16.16C159.673 16.28 160.019 16.34 160.433 16.34C161.206 16.34 161.759 16.1133 162.093 15.66C162.426 15.2067 162.593 14.6467 162.593 13.98C162.593 13.26 162.426 12.6933 162.093 12.28C161.773 11.8533 161.219 11.64 160.433 11.64C159.619 11.64 159.053 11.8467 158.733 12.26C158.413 12.66 158.253 13.2333 158.253 13.98ZM168.04 16C168.04 15.16 168.147 14.42 168.36 13.78C168.587 13.1267 168.907 12.58 169.32 12.14C169.733 11.6867 170.227 11.3467 170.8 11.12C171.387 10.88 172.033 10.76 172.74 10.76C173.567 10.76 174.28 10.8867 174.88 11.14C175.48 11.3933 175.967 11.7533 176.34 12.22C176.727 12.6733 177.007 13.22 177.18 13.86C177.367 14.5 177.46 15.2133 177.46 16C177.46 17.68 177.033 18.9733 176.18 19.88C175.327 20.7867 174.18 21.24 172.74 21.24C171.94 21.24 171.247 21.12 170.66 20.88C170.073 20.6267 169.587 20.2733 169.2 19.82C168.813 19.3533 168.52 18.8 168.32 18.16C168.133 17.5067 168.04 16.7867 168.04 16ZM169.96 16C169.96 16.6 170.013 17.1667 170.12 17.7C170.24 18.2333 170.42 18.7 170.66 19.1C170.913 19.4867 171.24 19.7933 171.64 20.02C172.04 20.2467 172.52 20.36 173.08 20.36C173.8 20.36 174.387 20.0067 174.84 19.3C175.307 18.5933 175.54 17.4933 175.54 16C175.54 15.3867 175.48 14.82 175.36 14.3C175.253 13.7667 175.08 13.3067 174.84 12.92C174.6 12.52 174.293 12.2067 173.92 11.98C173.547 11.7533 173.1 11.64 172.58 11.64C171.793 11.64 171.16 11.9933 170.68 12.7C170.2 13.4067 169.96 14.5067 169.96 16Z" fill="#2E495A"/>
<path d="M20.5964 10.1228V10.1195C20.5861 10.0839 20.5753 10.0483 20.5645 10.0126C20.5622 10.0037 20.5594 9.99483 20.5566 9.98639C20.5364 9.91889 20.5158 9.85139 20.4942 9.78436L20.4914 9.77498C20.3599 9.36637 20.2033 8.96624 20.0227 8.57686C19.8476 8.1912 19.6456 7.8184 19.418 7.46123C18.5389 6.04905 17.3384 4.86466 15.9145 4.00467C14.28 3.01746 12.4062 2.49705 10.4967 2.49998C10.1686 2.49998 9.84047 2.51592 9.52078 2.54686C8.39016 2.66592 6.48422 3.07233 4.93781 4.43029C10.567 1.55592 18.0877 5.01717 17.4478 11.4531C17.22 13.75 15.27 15.3283 13.4545 15.5945C13.1316 15.6439 12.8034 15.6472 12.4795 15.6044C8.04562 14.988 8.31703 11.3537 9.66422 9.79983C7.88297 9.78858 6.50156 11.9931 7.17281 14.1592C5.62828 11.2914 7.18922 6.79983 10.4977 5.44045C6.60937 4.87795 2.96437 6.76233 1.79297 10.0375C1.93286 8.84033 2.2121 7.6636 2.625 6.53123C2.625 6.53123 0.505313 8.20654 0.0731251 11.7297C0.0665626 11.784 0.0604688 11.8384 0.0548438 11.8933C0.0525001 11.912 0.050625 11.9308 0.04875 11.95C0.0321875 12.114 0.0196876 12.2792 0.0112501 12.4455V12.4834C0.00796883 12.5528 0.00515624 12.624 0.00328124 12.6925V12.7511C0.00328124 12.8336 0 12.9161 0 12.999C0 18.798 4.70109 23.499 10.5 23.499C16.2989 23.499 20.9967 18.7989 20.9967 13C20.9972 12.027 20.8625 11.0587 20.5964 10.1228V10.1228Z" fill="#2E495A"/>
</svg>
