<svg width="127" height="46" viewBox="0 0 127 46" fill="none" xmlns="http://www.w3.org/2000/svg">
<path d="M13.7768 36.5209C14.5124 36.5209 15.3061 36.3466 16.1579 35.9982C17.0097 35.6497 17.5517 35.4755 17.784 35.4755C18.5197 35.4755 18.8875 35.8433 18.8875 36.5789C18.8875 37.0823 18.6165 37.4888 18.0744 37.7985C16.7967 38.5342 15.4223 38.902 13.951 38.902C13.7961 38.902 13.5638 38.8826 13.2541 38.8439C12.9443 38.8439 12.712 38.8439 12.5572 38.8439C11.2408 41.2057 10.0212 42.7931 8.89837 43.6062C6.96249 44.9613 5.04598 45.6388 3.14882 45.6388C1.60012 45.6388 0.825771 44.9806 0.825771 43.6642C0.825771 42.5802 1.38717 40.8766 2.50998 38.5535C2.93587 37.7018 3.69087 36.2111 4.77495 34.0817C2.72293 31.1779 1.73563 27.6546 1.81307 23.5118C1.8905 19.4852 3.1101 15.4779 5.47187 11.49C7.33031 8.39262 9.51785 5.79855 12.0345 3.70781C12.4217 3.39806 12.8863 3.06897 13.4283 2.72051C15.7901 1.24924 18.0938 0.513611 20.3394 0.513611C24.0175 0.513611 25.8566 2.43013 25.8566 6.26316C25.8566 7.61827 25.5275 9.55414 24.8693 12.0708C24.637 12.9613 23.4368 15.807 21.2686 20.608C27.0375 13.3678 31.8966 9.07018 35.8457 7.71507C37.1621 7.25046 38.2849 7.01815 39.2142 7.01815C41.3823 7.01815 42.4664 8.16032 42.4664 10.4446C42.4664 11.7998 42.0986 13.3872 41.363 15.2069C40.4725 17.4525 39.1754 20.2595 37.4719 23.6279C44.0538 15.9232 49.5324 12.0708 53.9074 12.0708C56.5015 12.0708 57.7985 13.1936 57.7985 15.4392C57.7985 16.6007 57.4307 18.0526 56.6951 19.7949C54.372 24.17 51.7005 29.3775 48.6806 35.4174C48.2547 36.4241 48.0417 37.2178 48.0417 37.7985C48.0417 39.0762 48.9903 38.9601 50.8875 37.4501C51.9716 36.5596 53.3848 35.3593 55.127 33.8494C55.6304 33.346 56.2111 33.0944 56.8693 33.0944C57.2952 33.0944 57.5082 33.2492 57.5082 33.559C57.5082 33.9462 57.1404 34.5656 56.4047 35.4174C54.5076 37.6243 52.4362 39.6183 50.1906 41.3993C47.1319 43.7998 44.5572 45 42.4664 45C39.64 45 38.2269 43.5481 38.2269 40.6443C38.2269 39.444 38.4785 38.2825 38.9818 37.1597C41.1887 32.2813 42.9698 28.0998 44.3249 24.6152C44.7895 23.415 45.0218 22.4858 45.0218 21.8276C45.0218 21.2855 44.8282 21.0145 44.441 21.0145C43.899 21.0145 43.0859 21.4791 42.0018 22.4083C39.2529 24.7701 36.291 28.1579 33.1162 32.5717L31.1416 36.5209C29.9413 38.9214 29.1863 40.3733 28.8766 40.8766C28.2571 41.8445 27.444 42.6963 26.4374 43.4319C24.4628 44.9032 22.585 45.6388 20.804 45.6388C18.9456 45.6388 18.0163 45.1162 18.0163 44.0708C18.0163 43.5287 18.2293 42.7931 18.6552 41.8639C20.32 38.1857 23.6497 31.6618 28.6443 22.2922C29.8058 20.124 30.3866 18.4785 30.3866 17.3557C30.3866 16.6588 30.1543 16.3103 29.6897 16.3103C28.4507 16.3103 26.2244 18.3043 23.0109 22.2922C20.7266 25.1186 18.3067 28.4676 15.7514 32.3394C15.2868 33.3848 14.6286 34.7786 13.7768 36.5209ZM4.54265 23.9764C4.4265 26.7641 4.94918 29.2033 6.11071 31.294C11.7247 20.2208 15.0157 13.5033 15.9837 11.1416C16.4483 10.0188 16.6806 9.07018 16.6806 8.29583C16.6806 6.902 16.0611 6.20508 14.8221 6.20508C14.5511 6.20508 14.2414 6.2438 13.8929 6.32124L13.5445 6.49546C11.5699 7.4634 9.65336 9.65094 7.79492 13.0581C5.78161 16.7362 4.69752 20.3757 4.54265 23.9764ZM66.847 37.1016C66.6534 39.2311 67.4277 40.3152 69.17 40.3539C70.2541 40.3926 71.6286 39.928 73.2934 38.9601C74.8034 38.0309 76.1198 36.9855 77.2426 35.824C78.7139 34.2365 79.7012 33.288 80.2045 32.9782C80.7466 32.6298 81.0757 32.4555 81.1918 32.4555C81.5016 32.4555 81.8887 32.6104 82.3533 32.9201C82.5469 33.075 82.6437 33.2686 82.6437 33.5009C82.6437 34.3527 81.2886 36.0369 78.5784 38.5535C73.5838 43.1609 69.0152 45.4646 64.8724 45.4646C63.5947 45.4646 62.4719 45.1936 61.504 44.6515C60.1876 43.9159 59.1616 42.7737 58.4259 41.225C57.8065 39.9474 57.5741 38.8633 57.729 37.9728C57.8839 37.0048 58 36.366 58.0775 36.0563C58.3098 35.4368 58.7357 34.8754 59.3551 34.3721C58.3485 35.3787 57.6322 35.882 57.2063 35.882C56.8579 35.882 56.5288 35.7078 56.219 35.3593C55.948 35.0109 55.8125 34.6624 55.8125 34.314C55.8125 33.8494 56.1997 33.346 56.974 32.804C57.3999 32.4943 58.6776 31.0617 60.8071 28.5064C62.9752 25.951 65.1821 23.8409 67.4277 22.176C70.6026 19.7756 73.429 18.5753 75.9069 18.5753C77.533 18.5753 78.83 19.0593 79.798 20.0272C80.8821 21.1113 81.4241 22.2728 81.4241 23.5118C81.4241 25.3702 80.2626 27.5384 77.9395 30.0163C74.726 33.4235 71.0285 35.7852 66.847 37.1016ZM70.7962 31.2359C71.4156 31.2359 72.732 30.1712 74.7453 28.0417C75.9456 26.7641 76.5457 25.4283 76.5457 24.0345C76.5457 23.415 76.3134 23.1053 75.8488 23.1053C75.1132 23.1053 73.7968 24.3636 71.8996 26.8802C70.5832 28.4676 69.925 29.6679 69.925 30.4809C69.925 30.9843 70.2154 31.2359 70.7962 31.2359ZM99.7017 34.314C100.476 33.9655 101.212 33.4041 101.909 32.6298C102.373 32.0877 102.915 31.8167 103.535 31.8167C104.348 31.8167 104.754 32.2039 104.754 32.9782C104.754 33.3267 104.406 33.9074 103.709 34.7205C102.509 36.1531 100.96 37.0242 99.0628 37.3339C98.0175 40.2377 96.3526 42.3479 94.0683 43.6642C92.5196 44.5547 90.9322 45 89.306 45C85.6279 45 83.2661 44.0514 82.2207 42.1543C81.5625 40.9927 81.2334 39.8312 81.2334 38.6697C81.2334 36.7338 81.9884 35.3981 83.4984 34.6624C84.7374 34.0817 85.9957 33.7913 87.2734 33.7913C88.009 33.7913 89.3835 33.9268 91.3968 34.1978C91.5904 33.2299 91.6484 31.5263 91.571 29.0871C91.5323 26.9189 91.6872 25.2541 92.0356 24.0926C90.9128 24.7508 89.1512 26.4543 86.7507 29.2033C83.6533 32.7653 82.0078 34.6431 81.8142 34.8367C81.1173 35.5336 80.4204 35.6497 79.7235 35.1851C79.0653 34.7205 79.0653 34.1204 79.7235 33.3848C81.5432 31.2553 84.5825 27.7901 88.8414 22.9891C90.5837 21.1307 92.4809 19.6207 94.5329 18.4592C96.5849 17.2976 98.3466 16.7169 99.8178 16.7169C102.412 16.7169 103.709 17.8203 103.709 20.0272C103.709 20.8403 103.38 21.5566 102.722 22.176C102.063 22.7955 101.367 23.1053 100.631 23.1053C100.437 23.1053 100.244 23.0859 100.05 23.0472C98.8886 22.7374 98.0949 22.7955 97.669 23.2214C97.2431 23.6473 97.0302 24.1313 97.0302 24.6733C97.0302 25.2154 97.2625 26.2801 97.7271 27.8675C97.8045 28.0611 98.2304 29.1258 99.0048 31.0617C99.4694 32.2232 99.7017 33.3073 99.7017 34.314ZM90.5256 36.9855C87.9316 36.6757 86.4603 36.637 86.1118 36.8693C85.4924 37.2565 85.1826 37.7211 85.1826 38.2632C85.1826 38.9601 85.5504 39.5021 86.2861 39.8893C86.5571 40.0054 86.8281 40.0635 87.0991 40.0635C88.3768 40.0635 89.519 39.0375 90.5256 36.9855ZM121.202 34.314C121.976 33.9655 122.712 33.4041 123.409 32.6298C123.873 32.0877 124.415 31.8167 125.035 31.8167C125.848 31.8167 126.254 32.2039 126.254 32.9782C126.254 33.3267 125.906 33.9074 125.209 34.7205C124.009 36.1531 122.46 37.0242 120.563 37.3339C119.517 40.2377 117.853 42.3479 115.568 43.6642C114.02 44.5547 112.432 45 110.806 45C107.128 45 104.766 44.0514 103.721 42.1543C103.063 40.9927 102.733 39.8312 102.733 38.6697C102.733 36.7338 103.488 35.3981 104.998 34.6624C106.237 34.0817 107.496 33.7913 108.773 33.7913C109.509 33.7913 110.883 33.9268 112.897 34.1978C113.09 33.2299 113.148 31.5263 113.071 29.0871C113.032 26.9189 113.187 25.2541 113.536 24.0926C112.413 24.7508 110.651 26.4543 108.251 29.2033C105.153 32.7653 103.508 34.6431 103.314 34.8367C102.617 35.5336 101.92 35.6497 101.223 35.1851C100.565 34.7205 100.565 34.1204 101.223 33.3848C103.043 31.2553 106.083 27.7901 110.341 22.9891C112.084 21.1307 113.981 19.6207 116.033 18.4592C118.085 17.2976 119.847 16.7169 121.318 16.7169C123.912 16.7169 125.209 17.8203 125.209 20.0272C125.209 20.8403 124.88 21.5566 124.222 22.176C123.563 22.7955 122.867 23.1053 122.131 23.1053C121.937 23.1053 121.744 23.0859 121.55 23.0472C120.389 22.7374 119.595 22.7955 119.169 23.2214C118.743 23.6473 118.53 24.1313 118.53 24.6733C118.53 25.2154 118.762 26.2801 119.227 27.8675C119.305 28.0611 119.73 29.1258 120.505 31.0617C120.969 32.2232 121.202 33.3073 121.202 34.314ZM112.026 36.9855C109.432 36.6757 107.96 36.637 107.612 36.8693C106.992 37.2565 106.683 37.7211 106.683 38.2632C106.683 38.9601 107.05 39.5021 107.786 39.8893C108.057 40.0054 108.328 40.0635 108.599 40.0635C109.877 40.0635 111.019 39.0375 112.026 36.9855Z" fill="#F1F6F9"/>
</svg>
