<svg width="17" height="16" viewBox="0 0 17 16" fill="none" xmlns="http://www.w3.org/2000/svg">
<path d="M13.7486 0.202351L0.748641 7.69923C-0.326359 8.3211 -0.223234 9.91173 0.926766 10.3836L4.49864 11.8617V14.4992C4.49864 15.9492 6.34864 16.5461 7.20489 15.393L8.57364 13.5461L12.0705 14.9899C12.2549 15.0649 12.4486 15.1024 12.6424 15.1024C12.8986 15.1024 13.1518 15.0367 13.3799 14.9086C13.7799 14.6836 14.0549 14.2836 14.1268 13.8305L15.983 1.73048C16.1736 0.477352 14.8299 -0.419524 13.7486 0.202351ZM5.99864 14.4992V12.4805L7.14239 12.9524L5.99864 14.4992ZM12.6424 13.6024L7.83614 11.618L12.2174 5.2961C12.5518 4.81173 11.9205 4.24923 11.4768 4.6336L4.86739 10.393L1.49864 8.99923L14.4986 1.49923L12.6424 13.6024Z" fill="#214252"/>
</svg>
