<svg width="16" height="16" viewBox="0 0 16 16" fill="none" xmlns="http://www.w3.org/2000/svg">
<path d="M7.75 0.25C3.46875 0.25 0 3.71875 0 8C0 12.2812 3.46875 15.75 7.75 15.75C12.0312 15.75 15.5 12.2812 15.5 8C15.5 3.71875 12.0312 0.25 7.75 0.25ZM7.75 14.25C4.30312 14.25 1.5 11.4469 1.5 8C1.5 4.55312 4.30312 1.75 7.75 1.75C11.1969 1.75 14 4.55312 14 8C14 11.4469 11.1969 14.25 7.75 14.25ZM11.05 9.51875C10.2406 9.77812 9.0375 9.92813 7.75 9.92813C6.4625 9.92813 5.2625 9.77812 4.45 9.51875C4.14062 9.42188 3.84375 9.6875 3.89687 9.99687C4.14375 11.4688 6.125 12.4969 7.75 12.4969C9.375 12.4969 11.3531 11.4688 11.6031 9.99687C11.6531 9.69063 11.3625 9.42188 11.05 9.51875ZM3.71563 8.24375C3.82812 8.375 4.025 8.42188 4.19375 8.32187L6.69375 6.82188C6.80625 6.75313 6.875 6.63125 6.875 6.5C6.875 6.36875 6.80625 6.24687 6.69375 6.17812L4.19375 4.67812C4.03437 4.58437 3.8375 4.61875 3.71563 4.75625C3.59687 4.89687 3.59688 5.1 3.7125 5.24062L4.7625 6.5L3.7125 7.75938C3.59375 7.9 3.59687 8.10625 3.71563 8.24375ZM11.3062 8.32187C11.475 8.42188 11.6719 8.375 11.7844 8.24375C11.9031 8.10312 11.9031 7.9 11.7875 7.75938L10.7375 6.5L11.7875 5.24062C11.9062 5.1 11.9031 4.89687 11.7844 4.75625C11.6656 4.61875 11.4656 4.5875 11.3062 4.67812L8.80625 6.17812C8.69375 6.24687 8.625 6.36875 8.625 6.5C8.625 6.63125 8.69375 6.75313 8.80625 6.82188L11.3062 8.32187Z" fill="#214252"/>
</svg>
